<?xml version="1.0" encoding="utf-8"?>
<!-- Generator: Adobe Illustrator 16.0.0, SVG Export Plug-In . SVG Version: 6.00 Build 0)  -->
<!DOCTYPE svg PUBLIC "-//W3C//DTD SVG 1.1//EN" "http://www.w3.org/Graphics/SVG/1.1/DTD/svg11.dtd">
<svg version="1.1" xmlns="http://www.w3.org/2000/svg" xmlns:xlink="http://www.w3.org/1999/xlink" x="0px" y="0px" width="313.5px"
	 height="313.5px" viewBox="0 0 313.5 313.5" enable-background="new 0 0 313.5 313.5" xml:space="preserve">
<g id="Layer_1" display="none">
	<path display="inline" fill="none" stroke="#4C3317" stroke-width="13" stroke-miterlimit="10" d="M306.804,302.756
		c0,2.051-1.663,3.715-3.714,3.715H11.437c-2.05,0-3.713-1.664-3.713-3.715V11.103c0-2.051,1.663-3.713,3.713-3.713H303.09
		c2.051,0,3.714,1.663,3.714,3.713V302.756z"/>
	<text transform="matrix(1 0 0 1 10.7632 141.752)" display="inline"><tspan x="0" y="0" fill="#4C3317" font-family="'Yj-CHMSOOT-Bold'" font-size="150" letter-spacing="-4">계절</tspan><tspan x="0" y="145" fill="#4C3317" font-family="'Yj-CHMSOOT-Bold'" font-size="150" letter-spacing="-4">밥상</tspan></text>
</g>
<g id="Layer_1_copy">
	<path fill="none" stroke="#4C3317" stroke-width="13" stroke-miterlimit="10" d="M306.804,302.756c0,2.051-1.663,3.715-3.714,3.715
		H11.437c-2.05,0-3.713-1.664-3.713-3.715V11.103c0-2.051,1.663-3.713,3.713-3.713H303.09c2.051,0,3.714,1.663,3.714,3.713V302.756z
		"/>
	<g>
		<path fill="#4C3317" d="M56.063,24.452l4.05-0.45h17.55l-0.15,11.4l-1.05,5.4v0.9l9.6,0.3l2.55,0.6l2.4-0.75l-0.6-2.4v-22.8
			l6.149,2.4l3.602-0.6h10.648l-0.148,12.3l-0.75,8.7l0.148,9.45l-0.6,14.1l0.301,4.5v4.95l-0.301,3.45l-0.6,39l0.449,13.199v6.9
			l0.451,9.45l0.299,9.149l-20.849-0.3l0.3-11.1l0.6-4.65l0.9-9.6v-27.45l-1.35-0.3h-7.65l-4.95,1.05l-0.15,12.75l-6.3,0.45
			l-5.7-0.15l-7.65,0.45v-11.25l0.6-8.55l-0.15-9.45l0.6-16.35l-0.15-22.5l0.15-6l-3.15-0.3l-7.5,1.95l-11.1-0.6l-8.85,0.6
			l-8.1,0.15l0.75-6.3l-0.45-3.75l0.3-8.7l12,0.3l3.75,1.2l14.4-1.35L56.063,24.452z M91.013,75.152v-16.8l-8.55,0.15l-4.95,1.65
			v1.5l-0.6,18.6v3l7.95,0.3l2.55,0.6l2.85-1.2l0.3-3.6l1.5-1.8l0.3-1.8L91.013,75.152z M115.764,33.152l-1.65-14.7l22.5-0.45
			l-1.199,20.1l0.148,6.75l-0.898,4.5v7.65l1.35,5.85l-0.75,14.7l0.15,6.75l-0.301,7.5l0.9,8.25l-0.6,9.45l0.449,22.95l-2.4,1.5
			l-0.15,1.649l1.951,2.7l0.15,15.601l-19.951-0.45v-12.3l0.301-4.351l-0.301-4.8v-4.2l0.301-3.6l0.9-3l-0.75-4.65l-0.451-4.2
			l0.6-10.35l2.102-2.85l-2.4-1.5v-22.35l0.6-8.4l-0.449-9.3l-0.15-16.35V33.152z"/>
		<path fill="#4C3317" d="M254.664,88.952h5.55v-18.75l0.899-2.7l-0.149-0.6l-3.75-0.3l-2.4-0.75l-4.5,1.05l-4.2-0.15l-12,0.3
			l0.601-6l-0.601-10.8l14.851,0.6l11.55-0.9l0.15-2.1l-0.301-6.6l0.9-5.1l-1.05-4.5l-1.05-14.7l7.5,1.95l4.5-0.6h12.899l-2.399,5.7
			l-0.15,2.85l-0.6,5.55l0.149,5.85l-0.75,9.45l-1.5,2.85l2.25,1.5l-0.6,3.45l0.3,24.45l-0.6,8.85h8.25l-1.95,9l0.6,3.9l-0.6,12.3
			l-0.15,12.15l-34.35-0.45l-10.2,0.3h-16.65l-6.899,0.3l-11.7-0.3l-5.85,0.15l-0.301,0.75l-0.149,2.399l0.149,3.75l39.9,0.3
			l26.25-0.3l21.6-1.5l-1.649,4.351l2.7,1.35l-0.75,10.95l-13.2-0.3l-4.351-0.601l-20.55,0.601h-6.45l-9.75-0.45l-6.449,0.45
			l-12.301-0.601l-12.449,0.3l-25.2,0.15l0.45-11.7l2.25-2.25v-3.6l-2.101-1.8l0.15-2.851l-6,0.3v-14.25h11.7l13.199,0.301
			l12.45-0.301l32.4,0.301h18.45l4.35-0.301l0.6-4.649l-0.3-1.5l-31.35-0.3l-16.95,0.15l-13.35-0.15l-27.301,0.15l-0.449-16.65h4.8
			l-15.45-8.25l2.1-3.9l3-0.45l1.2-1.2l-1.2-0.9l4.5-7.8l5.551-1.65l3.75-3.45l-3.301-3l5.25-7.5l4.95-6.75l2.25-1.2v-4.35
			l-3.6-0.45l-13.95,0.9l-11.25,0.15v-19.2l6.6,3.6l3.301-1.05l9.449,0.15l6.9-0.3h5.4l6.6,0.6l7.8-0.45l9,0.45l6.75,0.15l13.95-0.3
			v16.05l-7.05-0.15l-4.2-0.6l-5.4,0.9l-5.55-0.6l-6.45,0.6l-1.35-1.5l1.5,3l4.5,6.3l1.5,1.65l1.2,1.8l2.1,1.05l0.3,2.85l2.851,3.75
			l1.8,1.8l1.95,4.05l4.2,5.7l1.05,2.4l1.35,1.05l4.8,4.95l-6.899,3.75l-12.45,6l-3.75-6l0.45-4.8l-2.851,0.9l-1.649-4.05l-2.101-3
			l-2.25-2.7l-1.5-3.15l0.15-2.85l0.9-2.4l-3.75-2.85l-4.801,9l-2.699,3.9l-2.551,2.85l-0.149,0.9l-4.2,7.05l-6.45,8.55h10.05
			l5.851,1.2l8.7-1.05h5.55l10.35,0.6l7.351-0.45l11.399,0.9L254.664,88.952z"/>
		<path fill="#4C3317" d="M83.663,168.702l9.45,0.149l-2.7,8.101l0.45,6.45l-0.9,6l0.15,7.5l-0.45,21l0.75,1.8l-0.6,12.45
			l-4.8,0.449l-5.1-0.449h-5.25l-7.2-0.601l-5.25,0.45l-39.6,0.15l1.05-9.75l1.35-3.15l0.15-0.45l-0.3-15.45v-6.899l0.75-7.5
			l-0.9-7.95v-3.6l-1.65-8.25l9.3-0.15l13.05,0.3l-1.5,8.7l-0.15,3.75l0.3,4.05c0,0.101,1.299,0.202,3.9,0.3h9.6l6.9,0.15l6.15-0.3
			v-4.2l0.45-4.35l-2.55-8.7H83.663z M140.514,196.302h9.6l-0.15,7.8l-0.9,10.801l-11.1-0.301h-5.85l-2.25-0.3l-1.35,0.601
			l-0.6,5.55l0.898,17.25h0.75l8.852,1.95l-0.301,10.199l-1.35,6.9l0.449,8.1l-0.75,8.7l-0.15,9.15l2.852,11.1l-6.301-1.649
			l-6.9,0.899l-7.799-1.05l-24.9,0.6l-61.8-0.149l1.05-9.15l1.35-1.05l-0.45-7.5l0.15-8.4l-1.2-6.149l2.25-5.851l-1.8-9.149
			l-1.35-7.8l9.9,0.3l10.5-0.3l1.35,10.949l0.15,1.95l6,0.3l3.9-0.449h7.5l5.7,0.149h3.6l26.55,0.3l5.4-1.05h4.65v-0.6l0.148-3
			l-0.148-0.9l-8.4,0.3l0.299-17.1l0.9-7.8l-1.049-4.2l-0.451-16.65v-4.8l0.6-5.7l-0.75-7.8l1.051-4.8l-1.199-14.55l6.449,1.95
			l5.1-0.75h7.801l3.6,3.6l-1.051,8.7v7.649l-1.648,13.5l0.148,0.15h5.25l2.852,0.45L140.514,196.302z M70.463,215.052l0.15-0.6
			l-0.75-5.101l0.75-7.5l-19.05-0.149l-5.85,0.899l-1.5,0.15l-0.15,4.05l0.3,7.2l-0.15,1.65l6.9-0.301l19.2,0.15L70.463,215.052z
			 M89.513,276.702l13.799-0.75l10.951-0.15h3.15l-0.451-2.55l0.451-4.95v-2.55l-9.15-0.45l-8.701-0.3l-14.099,0.6l-3-1.35
			l-4.2,0.75l-13.35,0.75l-2.4-0.9l-2.7,0.15l-7.35,0.15l0.15,2.699l-0.15,4.5l0.15,3.45l20.25,0.75L89.513,276.702z"/>
		<path fill="#4C3317" d="M236.664,223.152l4.199,6.6l-8.25,5.25l-1.5-0.3l-2.399,1.649l-8.851,1.351l-3-6.3l0.45-2.4l-2.25-1.2
			l-1.649-4.8l-2.551-4.5l-1.5-4.05l-2.85-4.351l0.3-3.75l-1.05-2.55l-1.95-1.2l-0.45-0.6v-0.3l-2.55,4.5l-2.25,4.8l-2.7,4.95
			l-2.55,3.75v2.1l-1.649,1.8l-6.301,14.551l-20.699-6.15l1.35-4.8l3-2.55v-1.801l4.8-9.3l4.05-6.149l2.7-1.95l1.65-1.8l-1.05-1.351
			l4.199-9.75l3-5.399l2.101-3.45l1.05-2.25l0.45-4.05l2.1-3.15l-0.45-4.8l3-2.25l6-2.7l3.45,0.9l4.5,9.75l1.65,4.35l4.5,7.65
			l1.649,2.55l1.2,2.25l2.101,1.5l0.149,3.149l3,5.851l2.101,2.1l2.1,5.101l4.95,9l0.75,3.149L236.664,223.152z M270.414,255.552
			l2.1,10.2l-0.6,10.05l-3.75,1.351l-0.75,0.899l-0.15,0.9l3.15,2.85l-4.95,5.25l-5.101,5.4l-12.6,3.6h-12l-10.05-2.25l-7.2-5.1
			l-6.45-9l-2.85-10.65l1.8-7.95l1.05-6.6l6.601-8.1l8.399-3.601l6.601-2.55h14.1l6.6,1.05v-7.8l0.9-9.75l-1.05-4.2l-0.45-17.399
			v-5.101l0.6-5.85l-0.75-8.101l1.051-4.949l-1.2-15l6.45,1.8l5.1-0.601h7.95l3.3,3.75l-0.9,9.15v7.65l-1.649,14.1l0.149,0.3h5.25
			l2.851,0.601l4.35-0.9h9.45l-0.15,7.8l-0.75,11.25l-11.399-0.45h-5.7l-2.25-0.449l-1.2,0.6l-0.6,6l1.05,20.25h-15.9l5.851,3.9
			L270.414,255.552z M251.063,274.752l0.9-7.2l-1.05-6.45l-4.051-4.949l-4.05-1.5l-4.05,1.05l-3,1.2l-3,2.25l-2.85,6.899v5.55
			l1.649,3.15l2.7,3.45l3.3,1.649l4.2,0.9l1.2-0.75l5.1-0.75l1.65-1.95L251.063,274.752z"/>
	</g>
</g>
</svg>
